<svg width="40" height="40" viewBox="0 0 40 40" fill="none" xmlns="http://www.w3.org/2000/svg">
<circle cx="20" cy="20" r="20" fill="#6C6A6A"/>
<path d="M17.56 16.14L15.56 14.14L11.41 10L10 11.41L12.73 14.14H12C11.45 14.14 11 14.59 11 15.14V25.14C11 25.69 11.45 26.14 12 26.14H24C24.21 26.14 24.39 26.06 24.55 25.96L27.73 29.14L29.14 27.73L20.28 18.87L17.56 16.14ZM13 24.14V16.14H14.73L22.73 24.14H13ZM23 16.14V18.75L29 24.75V14.64L25 18.64V15.14C25 14.59 24.55 14.14 24 14.14H18.39L20.39 16.14H23Z" fill="white"/>
</svg>
