<svg width="26" height="26" viewBox="0 0 26 26" fill="none" xmlns="http://www.w3.org/2000/svg">
<path d="M22.7604 19.932C24.3102 18.5507 25.1878 16.7097 25.1878 14.7991C25.1878 12.7687 24.2372 10.8698 22.5112 9.45186C20.8314 8.07234 18.6079 7.3125 16.25 7.3125C13.8921 7.3125 11.6686 8.07234 9.98903 9.45196C8.26302 10.8698 7.3125 12.7687 7.3125 14.7991C7.3125 16.8296 8.26302 18.7285 9.98903 20.1464C11.6686 21.526 13.8921 22.2858 16.25 22.2858C16.5642 22.2858 16.8803 22.2719 17.1938 22.2444L17.7293 22.7086C19.5743 24.3073 21.9337 25.1874 24.375 25.1875H25.1875V23.458L24.9495 23.2201C24.0108 22.2786 23.2669 21.1613 22.7604 19.932ZM18.7936 21.4805L17.719 20.5491L17.3607 20.593C16.9922 20.6381 16.6213 20.6607 16.25 20.6607C12.218 20.6607 8.9375 18.0312 8.9375 14.7991C8.9375 11.5671 12.218 8.9375 16.25 8.9375C20.282 8.9375 23.5625 11.567 23.5625 14.7991C23.5625 16.4094 22.7591 17.9127 21.3004 19.0322L20.8324 19.3912L21.0484 20.0024C21.4909 21.2506 22.1413 22.4149 22.9721 23.4462C21.4249 23.188 19.979 22.5077 18.7936 21.4805Z" fill="#686767"/>
<path d="M3.05627 16.1218C3.81683 15.1591 4.41399 14.0779 4.82386 12.9214L5.03816 12.3133L4.57062 11.9545C3.19505 10.899 2.4375 9.48228 2.4375 7.96539C2.4375 4.9173 5.53561 2.4375 9.34375 2.4375C12.1453 2.4375 14.5624 3.77965 15.6445 5.70273C15.8455 5.69298 16.0473 5.6875 16.25 5.6875C16.6572 5.6875 17.0606 5.70725 17.4603 5.74676C17.0421 4.66334 16.3159 3.67433 15.3174 2.85421C13.7146 1.53761 11.5934 0.8125 9.34375 0.8125C7.09414 0.8125 4.97291 1.53761 3.37005 2.85421C1.72077 4.209 0.8125 6.02418 0.8125 7.96539C0.8125 9.78336 1.64287 11.5351 3.11035 12.8527C2.63145 14.0052 1.9317 15.0529 1.05051 15.9366L0.8125 16.1746V17.875H1.625C3.12747 17.8748 4.60927 17.5249 5.95314 16.853C5.80578 16.2945 5.71943 15.7216 5.69563 15.1445C4.87996 15.6225 3.98656 15.9534 3.05627 16.1218Z" fill="#686767"/>
</svg>
