<svg width="40" height="40" viewBox="0 0 40 40" fill="none" xmlns="http://www.w3.org/2000/svg">
<circle cx="20" cy="20" r="20" fill="#FC0303"/>
<g clip-path="url(#clip0_493_3849)">
<path d="M20 17C18.4 17 16.85 17.25 15.4 17.72V20.82C15.4 21.21 15.17 21.56 14.84 21.72C13.86 22.21 12.97 22.84 12.18 23.57C12 23.75 11.75 23.85 11.48 23.85C11.2 23.85 10.95 23.74 10.77 23.56L8.29 21.08C8.19651 20.9892 8.12256 20.8803 8.07269 20.76C8.02282 20.6396 7.99808 20.5103 8 20.38C8 20.1 8.11 19.85 8.29 19.67C11.34 16.78 15.46 15 20 15C24.54 15 28.66 16.78 31.71 19.67C31.89 19.85 32 20.1 32 20.38C32 20.66 31.89 20.91 31.71 21.09L29.23 23.57C29.05 23.75 28.8 23.86 28.52 23.86C28.25 23.86 28 23.75 27.82 23.58C27.024 22.8376 26.1247 22.2145 25.15 21.73C24.9814 21.6479 24.8394 21.5199 24.7403 21.3607C24.6413 21.2015 24.5891 21.0175 24.59 20.83V17.73C23.15 17.25 21.6 17 20 17Z" fill="white"/>
</g>
<defs>
<clipPath id="clip0_493_3849">
<rect width="24" height="24" fill="white" transform="translate(8 8)"/>
</clipPath>
</defs>
</svg>
