<svg width="20" height="20" viewBox="0 0 20 20" fill="none" xmlns="http://www.w3.org/2000/svg">
<path d="M15 6.66675C16.3807 6.66675 17.5 5.54746 17.5 4.16675C17.5 2.78604 16.3807 1.66675 15 1.66675C13.6193 1.66675 12.5 2.78604 12.5 4.16675C12.5 5.54746 13.6193 6.66675 15 6.66675Z" stroke="#686767" stroke-width="1.66667" stroke-linecap="round" stroke-linejoin="round"/>
<path d="M5 12.5C6.38071 12.5 7.5 11.3807 7.5 10C7.5 8.61929 6.38071 7.5 5 7.5C3.61929 7.5 2.5 8.61929 2.5 10C2.5 11.3807 3.61929 12.5 5 12.5Z" stroke="#686767" stroke-width="1.66667" stroke-linecap="round" stroke-linejoin="round"/>
<path d="M15 18.3335C16.3807 18.3335 17.5 17.2142 17.5 15.8335C17.5 14.4528 16.3807 13.3335 15 13.3335C13.6193 13.3335 12.5 14.4528 12.5 15.8335C12.5 17.2142 13.6193 18.3335 15 18.3335Z" stroke="#686767" stroke-width="1.66667" stroke-linecap="round" stroke-linejoin="round"/>
<path d="M7.15833 11.2583L12.85 14.575" stroke="#686767" stroke-width="1.66667" stroke-linecap="round" stroke-linejoin="round"/>
<path d="M12.8417 5.42505L7.15833 8.74172" stroke="#686767" stroke-width="1.66667" stroke-linecap="round" stroke-linejoin="round"/>
</svg>
