<svg width="24" height="24" viewBox="0 0 24 24" fill="none" xmlns="http://www.w3.org/2000/svg">
<path d="M4 16H9.612L8.489 19.367C8.287 19.975 8.389 20.649 8.764 21.169C9.139 21.689 9.747 22 10.388 22H12C12.297 22 12.578 21.868 12.769 21.64L17.469 16H20C21.103 16 22 15.103 22 14L22 5C22 3.897 21.103 3 20 3L6.693 3C6.28611 3.00135 5.88921 3.12616 5.55478 3.35792C5.22035 3.58969 4.96413 3.91749 4.82 4.298L2.063 11.649C2.02114 11.7613 1.9998 11.8802 2 12V14C2 15.103 2.897 16 4 16ZM20 14H18L18 5H20L20 14ZM4 12.181L6.693 5L16 5V14.638L11.532 20H10.386L11.948 15.317C11.9987 15.1667 12.0129 15.0064 11.9893 14.8496C11.9657 14.6927 11.905 14.5437 11.8123 14.415C11.7197 14.2862 11.5976 14.1814 11.4564 14.1092C11.3151 14.0371 11.1586 13.9996 11 14H4V12.181Z" fill="#686767"/>
</svg>
