<svg width="20" height="25" viewBox="0 0 20 25" fill="none" xmlns="http://www.w3.org/2000/svg">
<path d="M18.7503 22.4219H1.25492C0.92349 22.4219 0.605632 22.5536 0.371273 22.7879C0.136914 23.0223 0.00525231 23.3402 0.00525231 23.6716C0.00525231 24.003 0.136914 24.3209 0.371273 24.5552C0.605632 24.7896 0.92349 24.9213 1.25492 24.9213H18.7503C19.0818 24.9213 19.3996 24.7896 19.634 24.5552C19.8683 24.3209 20 24.003 20 23.6716C20 23.3402 19.8683 23.0223 19.634 22.7879C19.3996 22.5536 19.0818 22.4219 18.7503 22.4219ZM1.25492 19.9226H1.36739L6.57853 19.4477C7.14937 19.3908 7.68328 19.1393 8.09063 18.7354L19.3377 7.48833C19.7742 7.02716 20.0101 6.41175 19.9937 5.77695C19.9773 5.14215 19.71 4.53974 19.2502 4.10172L15.8261 0.677623C15.3792 0.257853 14.7936 0.016995 14.1807 0.00086572C13.5678 -0.0152635 12.9703 0.194462 12.502 0.590146L1.25492 11.8372C0.850987 12.2445 0.599477 12.7784 0.542611 13.3493L0.00525231 18.5604C-0.0115821 18.7435 0.0121684 18.928 0.0748105 19.1008C0.137453 19.2736 0.237444 19.4304 0.367657 19.5602C0.484426 19.676 0.62291 19.7676 0.775167 19.8298C0.927424 19.892 1.09046 19.9235 1.25492 19.9226ZM14.0891 2.42716L17.5007 5.83877L15.0013 8.27563L11.6522 4.92651L14.0891 2.42716ZM2.96697 13.5617L10.0026 6.57607L13.3767 9.95019L6.37858 16.9483L2.62956 17.2983L2.96697 13.5617Z" fill="#686767"/>
</svg>
