<svg width="20" height="26" viewBox="0 0 20 26" fill="none" xmlns="http://www.w3.org/2000/svg">
<path d="M18.7503 23.3641H1.25492C0.92349 23.3641 0.605632 23.4958 0.371273 23.7302C0.136914 23.9645 0.00525231 24.2824 0.00525231 24.6138C0.00525231 24.9452 0.136914 25.2631 0.371273 25.4975C0.605632 25.7318 0.92349 25.8635 1.25492 25.8635H18.7503C19.0818 25.8635 19.3996 25.7318 19.634 25.4975C19.8683 25.2631 20 24.9452 20 24.6138C20 24.2824 19.8683 23.9645 19.634 23.7302C19.3996 23.4958 19.0818 23.3641 18.7503 23.3641ZM1.25492 20.8648H1.36739L6.57853 20.3899C7.14937 20.3331 7.68328 20.0815 8.09063 19.6776L19.3377 8.43056C19.7742 7.96939 20.0101 7.35398 19.9937 6.71918C19.9773 6.08438 19.71 5.48197 19.2502 5.04395L15.8261 1.61985C15.3792 1.20008 14.7936 0.959225 14.1807 0.943096C13.5678 0.926967 12.9703 1.13669 12.502 1.53238L1.25492 12.7794C0.850987 13.1868 0.599477 13.7207 0.542611 14.2915L0.00525231 19.5027C-0.0115821 19.6857 0.0121684 19.8702 0.0748105 20.043C0.137453 20.2158 0.237444 20.3727 0.367657 20.5024C0.484426 20.6182 0.62291 20.7098 0.775167 20.772C0.927424 20.8342 1.09046 20.8658 1.25492 20.8648ZM14.0891 3.36939L17.5007 6.781L15.0013 9.21786L11.6522 5.86874L14.0891 3.36939ZM2.96697 14.504L10.0026 7.5183L13.3767 10.8924L6.37858 17.8906L2.62956 18.2405L2.96697 14.504Z" fill="#EA8336"/>
</svg>
