<svg width="18" height="18" viewBox="0 0 18 18" fill="none" xmlns="http://www.w3.org/2000/svg">
<path d="M3.74506 8.99999L0.915889 1.72666C0.719222 1.22082 1.21256 0.736658 1.70089 0.908324L1.77839 0.941658L16.7784 8.44166C16.8749 8.49003 16.9573 8.56258 17.0175 8.65226C17.0776 8.74193 17.1135 8.84566 17.1217 8.95334C17.1298 9.06102 17.1099 9.16897 17.0639 9.26667C17.0179 9.36438 16.9474 9.44849 16.8592 9.51083L16.7784 9.55916L1.77839 17.0592C1.29256 17.3017 0.764222 16.8558 0.890889 16.3533L0.915889 16.2733L3.74506 8.99999L0.915889 1.72666L3.74506 8.99999ZM2.66839 2.78332L4.84339 8.37499H10.3659C10.5169 8.375 10.6628 8.42969 10.7767 8.52896C10.8905 8.62823 10.9645 8.76536 10.9851 8.91499L10.9909 8.99999C10.9909 9.15115 10.936 9.29717 10.8366 9.41101C10.7372 9.52486 10.5998 9.5988 10.4501 9.61916L10.3659 9.62499H4.84172L2.66756 15.2167L15.1017 8.99999L2.66756 2.78332H2.66839Z" fill="#D97930"/>
</svg>
