<svg width="20" height="21" viewBox="0 0 20 21" fill="none" xmlns="http://www.w3.org/2000/svg">
<path d="M5.26024 10.7586L2.56564 3.61062C2.37832 3.11351 2.84819 2.63769 3.3133 2.8064L3.38711 2.83916L17.6737 10.2098C17.7656 10.2574 17.8441 10.3287 17.9014 10.4168C17.9587 10.5049 17.9929 10.6069 18.0006 10.7127C18.0084 10.8185 17.9894 10.9246 17.9456 11.0206C17.9018 11.1167 17.8346 11.1993 17.7506 11.2606L17.6737 11.3081L3.38711 18.6788C2.92439 18.9171 2.42118 18.4789 2.54183 17.9851L2.56564 17.9065L5.26024 10.7586L2.56564 3.61062L5.26024 10.7586ZM4.23478 4.64907L6.30633 10.1443H11.5662C11.71 10.1443 11.849 10.1981 11.9574 10.2956C12.0658 10.3932 12.1363 10.528 12.1559 10.675L12.1614 10.7586C12.1614 10.9071 12.1092 11.0506 12.0145 11.1625C11.9198 11.2744 11.789 11.347 11.6463 11.367L11.5662 11.3728H6.30474L4.23399 16.868L16.0767 10.7586L4.23399 4.64907H4.23478Z" fill="#686767"/>
</svg>
