<svg width="24" height="24" viewBox="0 0 24 24" fill="none" xmlns="http://www.w3.org/2000/svg">
<path d="M12 2.25L2.25 5.25L4.57875 5.96475L6.75 6.63225V8.631C6.65625 8.745 6.58575 8.856 6.53025 8.97375C6.39525 9.258 6.3105 9.57375 6.234 9.94875C6.0915 10.6613 6.015 11.5807 6.006 12.5887C5.76997 12.7967 5.58059 13.0522 5.4503 13.3385C5.32001 13.6248 5.25175 13.9354 5.25 14.25C5.25 15.2078 5.9295 15.9 6.77625 16.2218C7.116 17.2005 7.6815 18.2753 8.496 19.1865C9.387 20.1795 10.5765 21 12 21C13.4235 21 14.613 20.1795 15.504 19.1865C16.3185 18.2753 16.884 17.2005 17.2238 16.2218C18.0705 15.8993 18.75 15.2078 18.75 14.25C18.7487 13.9334 18.6804 13.6207 18.5496 13.3325C18.4188 13.0442 18.2284 12.7869 17.991 12.5775C17.9828 11.5725 17.9062 10.6575 17.766 9.9495C17.6895 9.5745 17.6047 9.258 17.4697 8.97375C17.411 8.85085 17.3371 8.73572 17.25 8.631V6.633L21.75 5.25L12 2.25ZM12 3.8205L16.6522 5.25L12 6.6795L7.34775 5.25L12 3.8205ZM8.25 7.095L12 8.25L12.2228 8.1825L15.75 7.095V8.83575C15.741 8.84775 15.75 8.85075 15.7147 8.874C15.5977 8.97375 15.3548 9.117 15.0203 9.252C14.3498 9.51825 13.3103 9.75 12 9.75C10.6905 9.75 9.65025 9.51825 8.97975 9.252C8.64525 9.117 8.40225 8.97375 8.28525 8.874C8.25 8.85075 8.259 8.84775 8.25 8.8365V7.095ZM7.6995 10.2795C7.91625 10.4115 8.15025 10.5345 8.4255 10.6425C9.3075 10.995 10.518 11.2492 12 11.2492C13.4827 11.2492 14.6925 10.9942 15.5745 10.6425C15.8266 10.5428 16.0695 10.4214 16.3005 10.2795C16.4182 10.8863 16.5 11.7705 16.5 12.7493V13.3853L16.875 13.605C17.1038 13.734 17.25 13.965 17.25 14.2493C17.2515 14.4378 17.1806 14.6198 17.052 14.7576C16.9233 14.8955 16.7467 14.9787 16.5585 14.9902L16.0545 15.0315L15.9053 15.5153C15.6563 16.3267 15.0998 17.3873 14.382 18.1868C13.6673 18.987 12.8317 19.5 12 19.5C11.1675 19.5 10.3328 18.987 9.618 18.1875C8.90025 17.388 8.34375 16.3275 8.09475 15.5153L7.94475 15.0322L7.4415 14.991C7.25329 14.9795 7.07667 14.8962 6.94802 14.7584C6.81937 14.6205 6.7485 14.4386 6.75 14.25C6.75 13.9688 6.9 13.737 7.131 13.605L7.515 13.383L7.5 12.75V12.741C7.5 11.7683 7.5825 10.887 7.6995 10.2802V10.2795ZM6.129 12.75H6.753L6.123 12.765L6.129 12.75ZM9.75 13.5C9.3375 13.5 9 13.8375 9 14.25C9 14.6625 9.3375 15 9.75 15C10.1625 15 10.5 14.6625 10.5 14.25C10.5 13.8375 10.1625 13.5 9.75 13.5ZM14.25 13.5C13.8375 13.5 13.5 13.8375 13.5 14.25C13.5 14.6625 13.8375 15 14.25 15C14.6625 15 15 14.6625 15 14.25C15 13.8375 14.6625 13.5 14.25 13.5Z" fill="#686767"/>
</svg>
