<svg width="17" height="16" viewBox="0 0 17 16" fill="none" xmlns="http://www.w3.org/2000/svg">
<path d="M11.8838 8.82414C12.4411 8.089 12.8045 7.22552 12.9407 6.31314C13.0769 5.40076 12.9814 4.46878 12.6632 3.60295C12.3449 2.73711 11.8139 1.96522 11.1192 1.35829C10.4245 0.751364 9.58833 0.328887 8.6876 0.129729C7.78687 -0.0694287 6.85051 -0.0388718 5.96468 0.218589C5.07885 0.476049 4.27199 0.952145 3.61833 1.60308C2.96467 2.25401 2.4852 3.05887 2.22404 3.94362C1.96287 4.82836 1.9284 5.76458 2.12378 6.66614C2.30678 6.38214 2.59878 6.18614 2.92378 6.12114C3.12578 6.08014 3.32978 6.05114 3.53478 6.03314C3.43471 5.28523 3.54823 4.52426 3.86223 3.83812C4.17623 3.15199 4.67791 2.56866 5.30932 2.1555C5.94074 1.74235 6.67614 1.51622 7.43061 1.50324C8.18507 1.49025 8.92782 1.69093 9.57308 2.08211C10.2183 2.47329 10.7398 3.03901 11.0772 3.71393C11.4147 4.38886 11.5543 5.14546 11.48 5.89638C11.4057 6.64729 11.1206 7.36187 10.6575 7.95761C10.1944 8.55336 9.57218 9.00595 8.86278 9.26314C8.88878 9.32814 8.91278 9.39414 8.93478 9.46014C9.10478 9.96014 8.93378 10.4931 8.54278 10.8101L8.39678 10.9281C9.27848 10.7838 10.1114 10.4257 10.8228 9.88514L15.1008 14.1641C15.2415 14.3048 15.4323 14.3839 15.6313 14.3839C15.8303 14.3839 16.0211 14.3048 16.1618 14.1641C16.3025 14.0234 16.3815 13.8326 16.3815 13.6336C16.3815 13.4347 16.3025 13.2438 16.1618 13.1031L11.8838 8.82414V8.82414ZM0.889784 8.33314C0.495787 8.74735 0.196245 9.24204 0.0117839 9.78314C-0.0182161 9.87314 0.0107839 9.97314 0.0867839 10.0341L0.853784 10.6551C0.908066 10.6978 0.95195 10.7522 0.982125 10.8143C1.0123 10.8764 1.02798 10.9446 1.02798 11.0136C1.02798 11.0827 1.0123 11.1508 0.982125 11.2129C0.95195 11.275 0.908066 11.3295 0.853784 11.3721L0.0867839 11.9941C0.0499128 12.0234 0.0229335 12.0632 0.00951447 12.1083C-0.00390453 12.1534 -0.00311215 12.2015 0.0117839 12.2461C0.193784 12.7831 0.493784 13.2761 0.889784 13.6951C0.956784 13.7651 1.06178 13.7901 1.15578 13.7581L2.10078 13.4361C2.16689 13.412 2.23741 13.4023 2.30759 13.4077C2.37776 13.4131 2.44596 13.4335 2.50757 13.4676C2.56919 13.5016 2.62278 13.5484 2.66474 13.6049C2.70669 13.6615 2.73604 13.7263 2.75078 13.7951L2.93178 14.7381C2.94138 14.7851 2.96479 14.828 2.99901 14.8615C3.03322 14.895 3.07668 14.9175 3.12378 14.9261C3.70188 15.0436 4.29769 15.0436 4.87578 14.9261C4.92257 14.9174 4.96572 14.895 4.99973 14.8617C5.03374 14.8284 5.05708 14.7857 5.06678 14.7391L5.24678 13.7941C5.26269 13.726 5.29274 13.6619 5.33497 13.6061C5.37721 13.5503 5.43069 13.504 5.49196 13.4701C5.55323 13.4363 5.62092 13.4157 5.69066 13.4096C5.76039 13.4036 5.83062 13.4123 5.89678 13.4351L6.84378 13.7581C6.88953 13.774 6.93884 13.7764 6.98594 13.7653C7.03304 13.7541 7.076 13.7298 7.10978 13.6951C7.50578 13.2761 7.80578 12.7831 7.98778 12.2451C8.00245 12.2007 8.00313 12.1527 7.98972 12.1079C7.97631 12.063 7.94946 12.0233 7.91278 11.9941L7.14578 11.3731C7.0915 11.3305 7.04762 11.276 7.01744 11.2139C6.98727 11.1518 6.97159 11.0837 6.97159 11.0146C6.97159 10.9456 6.98727 10.8774 7.01744 10.8153C7.04762 10.7532 7.0915 10.6988 7.14578 10.6561L7.91278 10.0341C7.94966 10.0049 7.97663 9.96506 7.99005 9.91997C8.00347 9.87489 8.00268 9.82676 7.98778 9.78214C7.80319 9.2414 7.50366 8.74706 7.10978 8.33314C7.07611 8.2983 7.0332 8.27378 6.98609 8.26244C6.93898 8.25111 6.88962 8.25343 6.84378 8.26914L5.89878 8.59214C5.83268 8.6163 5.76216 8.626 5.69198 8.62058C5.6218 8.61517 5.55361 8.59475 5.492 8.56072C5.43038 8.52669 5.37679 8.47984 5.33483 8.42333C5.29288 8.36682 5.26353 8.30196 5.24878 8.23314L5.06678 7.28914C5.05708 7.24254 5.03374 7.19988 4.99973 7.16659C4.96572 7.13329 4.92257 7.11085 4.87578 7.10214C4.2977 6.98456 3.70187 6.98456 3.12378 7.10214C3.07668 7.11074 3.03322 7.13324 2.99901 7.16675C2.96479 7.20025 2.94138 7.24322 2.93178 7.29014L2.75178 8.23414C2.73587 8.3023 2.70583 8.36636 2.66359 8.42218C2.62136 8.478 2.56788 8.52432 2.50661 8.55816C2.44534 8.592 2.37764 8.6126 2.30791 8.61863C2.23817 8.62465 2.16795 8.61597 2.10178 8.59314L1.15578 8.27014C1.11004 8.25431 1.06073 8.25183 1.01363 8.26298C0.966525 8.27414 0.92357 8.29847 0.889784 8.33314V8.33314ZM3.99978 12.1801C3.32778 12.1801 2.78278 11.6581 2.78278 11.0131C2.78278 10.3681 3.32778 9.84614 3.99978 9.84614C4.67178 9.84614 5.21678 10.3681 5.21678 11.0131C5.21678 11.6581 4.67178 12.1801 3.99978 12.1801Z" fill="#7C7B7B"/>
</svg>
