<svg width="20" height="20" viewBox="0 0 20 20" fill="none" xmlns="http://www.w3.org/2000/svg">
<path d="M10 10.833C11.3807 10.833 12.5 9.71372 12.5 8.33301C12.5 6.9523 11.3807 5.83301 10 5.83301C8.61929 5.83301 7.5 6.9523 7.5 8.33301C7.5 9.71372 8.61929 10.833 10 10.833Z" stroke="#686767" stroke-width="1.66667" stroke-linecap="round" stroke-linejoin="round"/>
<path d="M10 1.6665C8.23193 1.6665 6.53624 2.36888 5.286 3.61913C4.03575 4.86937 3.33337 6.56506 3.33337 8.33317C3.33337 9.90984 3.66837 10.9415 4.58337 12.0832L10 18.3332L15.4167 12.0832C16.3317 10.9415 16.6667 9.90984 16.6667 8.33317C16.6667 6.56506 15.9643 4.86937 14.7141 3.61913C13.4638 2.36888 11.7682 1.6665 10 1.6665V1.6665Z" stroke="#686767" stroke-width="1.66667" stroke-linecap="round" stroke-linejoin="round"/>
</svg>
