<svg width="24" height="24" viewBox="0 0 24 24" fill="none" xmlns="http://www.w3.org/2000/svg">
<path d="M20.75 24H3.25C2.41986 24.0001 1.62117 23.6189 1.01777 22.9348C0.414367 22.2507 0.0519987 21.3154 0.00500013 20.3208L1.69987e-08 20.1V2.7C-7.00219e-05 2.01585 0.216295 1.35717 0.605369 0.857096C0.994443 0.357017 1.52721 0.0528265 2.096 0.00600016L2.25 2.03985e-08H17.75C18.3201 -8.40262e-05 18.869 0.259554 19.2858 0.726443C19.7025 1.19333 19.956 1.83265 19.995 2.5152L20 2.7V3.6H21.75C22.3201 3.59992 22.869 3.85955 23.2858 4.32644C23.7025 4.79333 23.956 5.43265 23.995 6.1152L24 6.3V20.1C24.0001 21.0962 23.6824 22.0546 23.1123 22.7787C22.5422 23.5028 21.7628 23.9376 20.934 23.994L20.75 24H3.25H20.75ZM3.25 22.2H20.75C21.1893 22.2 21.6126 22.0016 21.9357 21.6443C22.2588 21.2871 22.4581 20.7971 22.494 20.2716L22.5 20.1V6.3C22.5 6.08252 22.4344 5.87239 22.3152 5.70848C22.1961 5.54458 22.0316 5.43798 21.852 5.4084L21.75 5.4H20V18.3C20 18.5175 19.9344 18.7276 19.8152 18.8915C19.6961 19.0554 19.5316 19.162 19.352 19.1916L19.25 19.2C19.0688 19.2 18.8937 19.1212 18.7571 18.9783C18.6205 18.8353 18.5316 18.6379 18.507 18.4224L18.5 18.3V2.7C18.5 2.48252 18.4344 2.27239 18.3152 2.10848C18.1961 1.94458 18.0316 1.83798 17.852 1.8084L17.75 1.8H2.25C2.06876 1.80001 1.89366 1.87877 1.75707 2.02172C1.62048 2.16467 1.53165 2.36214 1.507 2.5776L1.5 2.7V20.1C1.50002 20.627 1.66517 21.1348 1.96268 21.5225C2.26019 21.9102 2.6683 22.1494 3.106 22.1928L3.25 22.2H20.75H3.25ZM8.246 10.8048C8.936 10.8048 9.496 11.4768 9.496 12.3048V16.5C9.496 17.328 8.936 18 8.246 18H4.75C4.06 18 3.5 17.328 3.5 16.5V12.3048C3.5 11.4768 4.06 10.8048 4.75 10.8048H8.246ZM12.25 16.2H15.746C15.936 16.2001 16.1189 16.2867 16.2578 16.4424C16.3966 16.598 16.4811 16.8112 16.494 17.0387C16.507 17.2662 16.4475 17.4911 16.3276 17.668C16.2077 17.8448 16.0362 17.9605 15.848 17.9916L15.746 18H12.25C12.06 17.9999 11.8771 17.9133 11.7382 17.7576C11.5994 17.602 11.5149 17.3888 11.502 17.1613C11.489 16.9338 11.5485 16.7089 11.6684 16.532C11.7883 16.3552 11.9598 16.2395 12.148 16.2084L12.25 16.2H15.746H12.25ZM7.997 12.6048H5V16.2H7.997V12.6048ZM12.25 10.8048H15.746C15.936 10.8049 16.1189 10.8915 16.2578 11.0472C16.3966 11.2028 16.4811 11.416 16.494 11.6435C16.507 11.871 16.4475 12.0959 16.3276 12.2728C16.2077 12.4496 16.0362 12.5653 15.848 12.5964L15.746 12.6048H12.25C12.0586 12.6071 11.8737 12.5216 11.7332 12.3657C11.5927 12.2098 11.5072 11.9953 11.4941 11.7661C11.4811 11.537 11.5415 11.3106 11.6631 11.1332C11.7847 10.9558 11.9581 10.8409 12.148 10.812L12.25 10.8048H15.746H12.25ZM4.246 5.3964H15.746C15.936 5.39647 16.1189 5.48309 16.2578 5.63877C16.3966 5.79444 16.4811 6.00756 16.494 6.23506C16.507 6.46255 16.4475 6.68747 16.3276 6.86436C16.2077 7.04125 16.0362 7.15692 15.848 7.188L15.746 7.1964H4.246C4.05606 7.19603 3.87332 7.10919 3.73466 6.95342C3.596 6.79765 3.51175 6.58455 3.49893 6.35715C3.48611 6.12974 3.54567 5.90497 3.66559 5.72821C3.7855 5.55145 3.95683 5.43587 4.145 5.4048L4.246 5.3964H15.746H4.246Z" fill="#686767"/>
</svg>
