<svg width="20" height="20" viewBox="0 0 20 20" fill="none" xmlns="http://www.w3.org/2000/svg">
<path d="M8.79503 5.20019L5.97586 1.94602C5.65086 1.57102 5.05503 1.57269 4.67753 1.95102L2.3592 4.27352C1.6692 4.96435 1.4717 5.99019 1.87086 6.81269C4.25555 11.7502 8.23757 15.7378 13.1717 18.1294C13.9934 18.5285 15.0184 18.331 15.7084 17.6402L18.0484 15.296C18.4275 14.9169 18.4284 14.3177 18.05 13.9927L14.7834 11.1885C14.4417 10.8952 13.9109 10.9335 13.5684 11.2769L12.4317 12.4152C12.3735 12.4762 12.2969 12.5164 12.2137 12.5296C12.1304 12.5429 12.0451 12.5284 11.9709 12.4885C10.1129 11.4186 8.57169 9.87538 7.5042 8.01602C7.46422 7.94165 7.44974 7.85621 7.46299 7.77282C7.47624 7.68942 7.51647 7.61268 7.57753 7.55435L8.71086 6.42019C9.0542 6.07519 9.0917 5.54185 8.79503 5.19935V5.20019Z" stroke="#686767" stroke-width="1.66667" stroke-linecap="round" stroke-linejoin="round"/>
</svg>
