<svg width="12" height="14" viewBox="0 0 12 14" fill="none" xmlns="http://www.w3.org/2000/svg">
<g opacity="0.63">
<path d="M11.8111 12.0589L9.63956 9.70545C10.3402 8.73524 10.7203 7.53716 10.7189 6.30377C10.7189 5.20534 10.4193 4.13157 9.85783 3.21826C9.2964 2.30495 8.49841 1.59311 7.56477 1.17276C6.63114 0.752406 5.6038 0.642423 4.61266 0.856717C3.62152 1.07101 2.7111 1.59995 1.99653 2.37666C1.28196 3.15337 0.795329 4.14296 0.598179 5.22028C0.401029 6.29761 0.502214 7.41428 0.888937 8.4291C1.27566 9.44392 1.93055 10.3113 2.7708 10.9216C3.61105 11.5318 4.59891 11.8575 5.60947 11.8575C6.74419 11.8591 7.84643 11.4458 8.73901 10.6843L10.9041 13.0447C10.9635 13.1097 11.0342 13.1614 11.112 13.1966C11.1898 13.2319 11.2733 13.25 11.3576 13.25C11.4419 13.25 11.5254 13.2319 11.6032 13.1966C11.6811 13.1614 11.7517 13.1097 11.8111 13.0447C11.8709 12.9801 11.9185 12.9033 11.9509 12.8187C11.9833 12.7341 12 12.6434 12 12.5518C12 12.4601 11.9833 12.3694 11.9509 12.2848C11.9185 12.2002 11.8709 12.1234 11.8111 12.0589ZM1.77737 6.30377C1.77737 5.47994 2.00212 4.67462 2.42319 3.98964C2.84427 3.30465 3.44276 2.77077 4.14299 2.45551C4.84321 2.14025 5.61372 2.05776 6.35707 2.21848C7.10043 2.3792 7.78324 2.77591 8.31917 3.35844C8.8551 3.94097 9.22007 4.68316 9.36793 5.49115C9.51579 6.29915 9.43991 7.13666 9.14986 7.89777C8.85982 8.65888 8.36865 9.30942 7.73847 9.76711C7.10828 10.2248 6.36738 10.4691 5.60947 10.4691C4.59313 10.4691 3.61842 10.0302 2.89976 9.2491C2.18111 8.46795 1.77737 7.40848 1.77737 6.30377Z" fill="#7C7B7B" fill-opacity="0.63"/>
<path d="M11.4436 12.3979L11.4445 12.3989C11.4597 12.4153 11.4737 12.437 11.484 12.4637C11.4943 12.4905 11.5 12.5206 11.5 12.5518C11.5 12.583 11.4943 12.613 11.484 12.6398C11.4737 12.6665 11.4597 12.6883 11.4445 12.7046L11.4417 12.7076C11.4267 12.7241 11.411 12.7348 11.397 12.7411C11.3831 12.7474 11.3698 12.75 11.3576 12.75C11.3454 12.75 11.3322 12.7474 11.3183 12.7411C11.3042 12.7348 11.2886 12.7241 11.2735 12.7076L11.2726 12.7067L9.10747 10.3463L8.78142 9.99086L8.41448 10.3039C7.60921 10.991 6.62131 11.3589 5.61014 11.3575H5.60947C4.70755 11.3575 3.82199 11.0671 3.06462 10.517C2.30665 9.96649 1.70997 9.17951 1.35616 8.25105C1.00228 7.32242 0.90917 6.2985 1.09001 5.31029C1.27084 4.32215 1.71634 3.41971 2.3645 2.71519C3.01225 2.01111 3.83231 1.53699 4.71832 1.34542C5.60389 1.15396 6.52232 1.25175 7.3595 1.62868C8.19735 2.0059 8.92029 2.64788 9.43188 3.48011C9.94366 4.31265 10.2189 5.29539 10.2189 6.30377V6.30434C10.2202 7.43589 9.87119 8.53064 9.2342 9.41273L8.9949 9.74411L9.27209 10.0445L11.4436 12.3979ZM1.99724 3.72779C1.52651 4.49355 1.27737 5.38989 1.27737 6.30377C1.27737 7.52826 1.7245 8.71012 2.5318 9.58763C3.34039 10.4665 4.44643 10.9691 5.60947 10.9691C6.47603 10.9691 7.31922 10.6896 8.03229 10.1717C8.74475 9.65422 9.29414 8.92329 9.61709 8.07582C9.93997 7.22852 10.0239 6.29826 9.85977 5.40115C9.69558 4.50397 9.28948 3.67463 8.68713 3.01991C8.08439 2.36475 7.31121 1.91322 6.46274 1.72977C5.61381 1.54623 4.73439 1.6409 3.93772 1.99959C3.14171 2.35798 2.46816 2.96172 1.99724 3.72779Z" stroke="black" stroke-opacity="0.63"/>
</g>
</svg>
