<svg width="20" height="15" viewBox="0 0 20 15" fill="none" xmlns="http://www.w3.org/2000/svg">
<path fill-rule="evenodd" clip-rule="evenodd" d="M12.4048 0C13.3122 0 14.0488 0.746667 14.0488 1.66667V5L19.8027 1.66667V13.3333L14.0488 10V13.3333C14.0488 14.2533 13.3122 15 12.4048 15H1.71882C0.811337 15 0.0748291 14.2533 0.0748291 13.3333V1.66667C0.0748291 0.746667 0.811337 0 1.71882 0H12.4048ZM12.4048 14.1667C12.8585 14.1667 13.2268 13.7933 13.2268 13.3333V1.66667C13.2268 1.2075 12.8585 0.833333 12.4048 0.833333H1.71882C1.2659 0.833333 0.896825 1.2075 0.896825 1.66667V13.3333C0.896825 13.7933 1.2659 14.1667 1.71882 14.1667H12.4048ZM14.0488 5.96V9.04L18.9807 11.8975V3.1025L14.0488 5.96Z" fill="black"/>
</svg>
