<svg width="25" height="26" viewBox="0 0 25 26" fill="none" xmlns="http://www.w3.org/2000/svg">
<path d="M13.9218 12.4999H10.9141V9.39648H9.41028V12.4999H6.40259V14.0517H9.41028V17.1551H10.9141V14.0517H13.9218V12.4999Z" fill="#686767"/>
<path d="M16.1777 21.0345H3.39496C2.99624 21.034 2.61396 20.8704 2.33202 20.5795C2.05008 20.2886 1.89151 19.8941 1.89111 19.4827V7.06894C1.89151 6.65752 2.05008 6.26307 2.33202 5.97216C2.61396 5.68124 2.99624 5.51762 3.39496 5.51721H16.1777C16.5764 5.51762 16.9587 5.68124 17.2406 5.97216C17.5225 6.26307 17.6811 6.65752 17.6815 7.06894V10.2166L21.7562 7.21402C21.8686 7.13124 22.0009 7.08199 22.1386 7.07167C22.2763 7.06135 22.4141 7.09036 22.5369 7.15552C22.6597 7.22067 22.7627 7.31946 22.8347 7.44105C22.9067 7.56263 22.9448 7.70232 22.945 7.8448V18.7069C22.945 18.8494 22.9069 18.9892 22.835 19.1109C22.7631 19.2326 22.6601 19.3315 22.5372 19.3967C22.4144 19.462 22.2765 19.4911 22.1388 19.4808C22.001 19.4705 21.8686 19.4212 21.7562 19.3384L17.6815 16.3358V19.4827C17.6811 19.8941 17.5225 20.2886 17.2406 20.5795C16.9587 20.8704 16.5764 21.034 16.1777 21.0345ZM3.39496 7.06894V19.4835L16.1777 19.4827V14.8276C16.1776 14.685 16.2157 14.5452 16.2876 14.4235C16.3595 14.3018 16.4626 14.2029 16.5854 14.1377C16.7082 14.0724 16.8461 14.0434 16.9839 14.0536C17.1216 14.0639 17.254 14.1132 17.3664 14.196L21.4411 17.1986V9.35307L17.3664 12.3557C17.254 12.4385 17.1216 12.4877 16.9839 12.498C16.8461 12.5083 16.7082 12.4792 16.5854 12.414C16.4626 12.3487 16.3595 12.2498 16.2876 12.1281C16.2157 12.0064 16.1776 11.8667 16.1777 11.7241V7.06894H3.39496Z" fill="#686767"/>
</svg>
